<svg width="192" height="41" viewBox="0 0 192 41" fill="none" xmlns="http://www.w3.org/2000/svg">
<path d="M125.06 41L126.409 38.0465L124.01 33.0799H125.52L127.131 36.648L128.641 33.0799H130.059L126.491 41H125.06ZM105.398 38.0649C104.864 37.4714 104.566 36.7022 104.562 35.9037C104.557 35.1051 104.847 34.3328 105.375 33.7337C105.892 33.207 106.597 32.907 107.335 32.8995C108.073 32.8919 108.784 33.1775 109.311 33.6934C109.818 34.2861 110.078 35.0508 110.038 35.8297C110.048 35.9733 110.036 36.1177 110.003 36.2578H105.898C105.901 36.4561 105.943 36.6518 106.024 36.833C106.104 37.0143 106.22 37.1773 106.366 37.3122C106.653 37.5863 107.036 37.7361 107.433 37.7288C107.745 37.7552 108.057 37.6711 108.314 37.4913C108.571 37.3115 108.757 37.0474 108.839 36.7447L109.97 37.1038C109.812 37.6161 109.494 38.0646 109.064 38.3838C108.592 38.7294 108.017 38.9068 107.433 38.8879C107.056 38.8952 106.681 38.826 106.331 38.6846C105.981 38.5431 105.664 38.3324 105.398 38.0649ZM106.337 34.4001C106.1 34.6318 105.956 34.9428 105.933 35.2737H108.69C108.683 34.9394 108.549 34.6202 108.314 34.3817C108.18 34.2563 108.021 34.1597 107.847 34.098C107.674 34.0362 107.49 34.0105 107.306 34.0226C107.127 34.0158 106.948 34.0463 106.781 34.1123C106.614 34.1783 106.463 34.2783 106.337 34.4059V34.4001ZM88.6575 38.3884C88.4911 38.2364 88.3584 38.0513 88.268 37.8449C88.1776 37.6385 88.1315 37.4155 88.1327 37.1902C88.1236 36.976 88.1606 36.7624 88.2412 36.5639C88.3218 36.3653 88.4442 36.1863 88.6 36.0392C88.9437 35.7348 89.3722 35.5429 89.8281 35.489L91.2691 35.2691C91.5465 35.23 91.6847 35.0953 91.6847 34.864C91.6887 34.7476 91.6671 34.6319 91.6213 34.5249C91.5755 34.4178 91.5068 34.3222 91.4199 34.2447C91.1928 34.0702 90.9091 33.9857 90.6234 34.0076C90.4807 33.9978 90.3375 34.0165 90.2021 34.0625C90.0667 34.1086 89.9418 34.1811 89.8346 34.2759C89.7275 34.3707 89.6403 34.4859 89.5782 34.6147C89.516 34.7435 89.48 34.8834 89.4724 35.0263L88.2501 34.7489C88.2779 34.4942 88.3565 34.2476 88.4812 34.0238C88.606 33.8 88.7743 33.6035 88.9763 33.4459C89.4394 33.0755 90.0205 32.8842 90.6131 32.9073C90.938 32.8802 91.2651 32.9186 91.5749 33.0202C91.8847 33.1218 92.1709 33.2846 92.4167 33.4989C92.6109 33.6993 92.7625 33.9369 92.8626 34.1974C92.9627 34.4579 93.0091 34.7359 92.9991 35.0148V37.8175C92.9936 38.1198 93.0168 38.4219 93.0682 38.7198H91.8216C91.7716 38.4843 91.7522 38.2433 91.7641 38.0028C91.5931 38.2424 91.3743 38.4439 91.1215 38.5946C90.8687 38.7453 90.5874 38.8419 90.2953 38.8784C90.0033 38.9148 89.7068 38.8903 89.4247 38.8064C89.1426 38.7224 88.881 38.5809 88.6564 38.3907L88.6575 38.3884ZM90.2194 36.3442C89.7199 36.4293 89.4701 36.6841 89.4701 37.1084C89.4685 37.2049 89.4872 37.3006 89.5248 37.3894C89.5625 37.4782 89.6184 37.5582 89.6888 37.6241C89.7693 37.6969 89.8635 37.753 89.9658 37.7891C90.0682 37.8253 90.1767 37.8408 90.285 37.8347C90.6526 37.8503 91.0125 37.727 91.2933 37.4894C91.434 37.3417 91.5412 37.1654 91.6077 36.9726C91.6742 36.7797 91.6985 36.5748 91.6789 36.3718V36.1174L90.2194 36.3442ZM80.9435 38.035C80.4081 37.4507 80.1102 36.6876 80.1081 35.8952C80.106 35.1028 80.3998 34.3381 80.9319 33.7509C81.1955 33.4754 81.5136 33.2579 81.866 33.1122C82.2184 32.9666 82.5973 32.896 82.9784 32.9049C83.5954 32.8784 84.2018 33.0713 84.69 33.4494C85.1109 33.7807 85.4123 34.2401 85.5486 34.7581L84.3493 35.1978C84.2764 34.9111 84.1221 34.6516 83.905 34.4508C83.6497 34.2327 83.3193 34.1228 82.9842 34.1446C82.7789 34.1412 82.5751 34.1812 82.3863 34.2619C82.1975 34.3426 82.0278 34.4623 81.8884 34.613C81.7329 34.7863 81.6131 34.9886 81.5359 35.2082C81.4587 35.4278 81.4256 35.6605 81.4384 35.893C81.426 36.1289 81.4603 36.3649 81.5393 36.5875C81.6183 36.8101 81.7404 37.0149 81.8988 37.1902C82.0404 37.3432 82.2128 37.4647 82.4046 37.5466C82.5964 37.6285 82.8033 37.669 83.0118 37.6655C83.3541 37.6827 83.69 37.5687 83.951 37.3467C84.173 37.1551 84.3352 36.9038 84.4183 36.6227L85.5947 37.0509C85.4341 37.5632 85.1229 38.0153 84.7015 38.3481C84.221 38.7239 83.6226 38.9169 83.013 38.8925C82.6276 38.9011 82.2446 38.8293 81.8885 38.6816C81.5323 38.534 81.2097 38.3138 80.9435 38.035ZM72.8737 38.3884C72.7073 38.2364 72.5747 38.0513 72.4842 37.8449C72.3938 37.6385 72.3477 37.4155 72.3489 37.1902C72.3398 36.976 72.3768 36.7624 72.4574 36.5639C72.538 36.3653 72.6604 36.1863 72.8162 36.0392C73.1595 35.7349 73.5876 35.5429 74.0431 35.489L75.4842 35.2691C75.7605 35.2308 75.899 35.0957 75.8997 34.864C75.9037 34.7475 75.8819 34.6317 75.8359 34.5247C75.79 34.4176 75.721 34.322 75.6338 34.2447C75.4071 34.0701 75.1238 33.9857 74.8385 34.0076C74.6958 33.998 74.5527 34.0167 74.4173 34.0629C74.282 34.109 74.1571 34.1815 74.05 34.2763C73.9429 34.3711 73.8558 34.4862 73.7935 34.6149C73.7313 34.7436 73.6952 34.8835 73.6875 35.0263L72.4651 34.7489C72.4931 34.4942 72.5718 34.2477 72.6965 34.024C72.8213 33.8002 72.9895 33.6037 73.1914 33.4459C73.6545 33.0755 74.2355 32.8842 74.8281 32.9073C75.1533 32.8801 75.4805 32.9185 75.7905 33.0201C76.1005 33.1217 76.387 33.2845 76.6329 33.4989C76.8269 33.6994 76.9783 33.937 77.0782 34.1975C77.1781 34.458 77.2243 34.736 77.2142 35.0148V37.8175C77.2086 38.1198 77.2321 38.422 77.2844 38.7198H76.039C75.9889 38.4843 75.9696 38.2433 75.9815 38.0028C75.8105 38.2424 75.5917 38.4439 75.3389 38.5946C75.0861 38.7453 74.8047 38.8419 74.5127 38.8784C74.2206 38.9148 73.9242 38.8903 73.6421 38.8064C73.36 38.7224 73.0983 38.5809 72.8737 38.3907V38.3884ZM74.4356 36.3442C73.9361 36.4293 73.6863 36.6841 73.6863 37.1084C73.6849 37.205 73.7037 37.3008 73.7416 37.3896C73.7795 37.4784 73.8355 37.5583 73.9062 37.6241C73.9868 37.698 74.0814 37.755 74.1844 37.7918C74.2874 37.8285 74.3967 37.8443 74.5059 37.8382C74.8734 37.8536 75.2332 37.7304 75.5141 37.4929C75.6547 37.345 75.7618 37.1688 75.8283 36.9759C75.8948 36.7831 75.9192 36.5783 75.8997 36.3752V36.1209L74.4356 36.3442ZM52.1866 38.035C51.6511 37.4508 51.353 36.6877 51.3509 35.8952C51.3488 35.1027 51.6427 34.338 52.1751 33.7509C52.4388 33.4755 52.7569 33.258 53.1092 33.1123C53.4616 32.9667 53.8405 32.896 54.2216 32.9049C54.8386 32.8784 55.445 33.0713 55.9332 33.4494C56.3543 33.7804 56.6558 34.2399 56.7918 34.7581L55.5936 35.1978C55.5204 34.9112 55.3662 34.6519 55.1493 34.4508C54.8939 34.2329 54.5636 34.1231 54.2285 34.1446C54.0232 34.1413 53.8195 34.1813 53.6307 34.262C53.4419 34.3427 53.2722 34.4623 53.1328 34.613C52.8195 34.9634 52.658 35.4237 52.6839 35.893C52.6715 36.1289 52.7057 36.3649 52.7848 36.5875C52.8638 36.8101 52.9859 37.0149 53.1443 37.1902C53.286 37.3432 53.4583 37.4646 53.6501 37.5465C53.8419 37.6284 54.0488 37.669 54.2573 37.6655C54.5995 37.6826 54.9354 37.5686 55.1965 37.3467C55.418 37.1547 55.5801 36.9036 55.6638 36.6227L56.8402 37.0509C56.679 37.5632 56.3674 38.0152 55.9458 38.3481C55.4654 38.724 54.8669 38.917 54.2573 38.8925C53.8715 38.9014 53.4881 38.8297 53.1316 38.6821C52.775 38.5344 52.4532 38.314 52.1866 38.035ZM44.1388 38.0695C43.6045 37.476 43.307 36.7069 43.3027 35.9083C43.2985 35.1097 43.5878 34.3374 44.1158 33.7383C44.6328 33.2117 45.3377 32.9116 46.0757 32.9041C46.8136 32.8965 47.5245 33.1821 48.0522 33.698C48.5595 34.2905 48.8196 35.0554 48.7785 35.8343C48.7885 35.9779 48.7768 36.1223 48.744 36.2624H44.6452C44.6476 36.4607 44.6902 36.6564 44.7705 36.8376C44.8509 37.0189 44.9672 37.1819 45.1125 37.3168C45.3993 37.591 45.7828 37.7408 46.1795 37.7334C46.4921 37.76 46.8041 37.6761 47.0611 37.4962C47.3181 37.3164 47.5039 37.0521 47.5861 36.7493L48.7163 37.1084C48.5587 37.6205 48.2417 38.0689 47.8117 38.3884C47.3396 38.7339 46.7654 38.9114 46.1807 38.8925C45.8028 38.8995 45.4274 38.8298 45.0772 38.6875C44.727 38.5453 44.4094 38.3335 44.1434 38.0649L44.1388 38.0695ZM45.078 34.4047C44.8409 34.6366 44.6971 34.9475 44.674 35.2783H47.4295C47.4233 34.9441 47.2895 34.625 47.0554 34.3863C46.9207 34.2609 46.7617 34.1644 46.5884 34.1027C46.415 34.0409 46.2308 34.0152 46.0472 34.0272C45.8692 34.0207 45.6918 34.051 45.526 34.1162C45.3603 34.1813 45.2097 34.2799 45.0838 34.4059L45.078 34.4047ZM96.6352 38.0108C96.1258 37.4205 95.8581 36.6595 95.8858 35.8803C95.8651 35.1116 96.1347 34.3632 96.6409 33.7843C96.877 33.5076 97.1719 33.2871 97.504 33.1387C97.8361 32.9904 98.1972 32.918 98.5608 32.9268C98.9355 32.9098 99.308 32.9937 99.6393 33.1697C99.882 33.2992 100.082 33.4963 100.215 33.7371V30.3347H101.517V37.6874C101.514 38.0336 101.534 38.3795 101.574 38.7233H100.299C100.259 38.4822 100.239 38.238 100.241 37.9936C100.091 38.2598 99.8665 38.4768 99.5956 38.6186C99.2875 38.7846 98.9418 38.8682 98.5919 38.8614C98.2241 38.8733 97.8582 38.8032 97.5208 38.6563C97.1834 38.5094 96.8828 38.2893 96.6409 38.012L96.6352 38.0108ZM97.6503 34.6004C97.3533 34.9588 97.2014 35.4154 97.2245 35.8803C97.2018 36.3505 97.3493 36.813 97.64 37.1833C97.7727 37.3434 97.9404 37.471 98.1302 37.5562C98.3199 37.6414 98.5267 37.6819 98.7346 37.6747C98.9397 37.68 99.1433 37.6378 99.3294 37.5513C99.5155 37.4648 99.6791 37.3365 99.8073 37.1763C100.098 36.8041 100.245 36.3403 100.223 35.8688C100.247 35.4094 100.104 34.9567 99.82 34.5946C99.689 34.4392 99.5243 34.3157 99.3384 34.2335C99.1525 34.1514 98.9504 34.1127 98.7473 34.1204C98.5403 34.1148 98.3347 34.1551 98.1452 34.2385C97.9557 34.3219 97.7871 34.4463 97.6515 34.6027L97.6503 34.6004ZM38.6565 38.3412C38.5018 38.1768 38.3822 37.9826 38.305 37.7705C38.2278 37.5583 38.1947 37.3327 38.2076 37.1073V34.2724H37.1717V33.0799H37.4595C37.5783 33.0885 37.6975 33.0712 37.809 33.0293C37.9204 32.9874 38.0215 32.9218 38.1052 32.837C38.2561 32.6598 38.3342 32.4319 38.3239 32.1994V31.3545H39.5347V33.0811H40.6996V34.2735H39.5382V36.8897C39.5294 36.9865 39.5401 37.0841 39.5697 37.1766C39.5994 37.2692 39.6474 37.3548 39.7109 37.4284C39.8628 37.5528 40.0573 37.6131 40.253 37.5965C40.4076 37.5966 40.5618 37.5812 40.7134 37.5504V38.6623C40.4516 38.7582 40.1735 38.8017 39.895 38.7901C39.6698 38.8022 39.4445 38.7688 39.2325 38.6918C39.0205 38.6149 38.8262 38.496 38.6611 38.3423L38.6565 38.3412ZM120.179 38.7175V35.2795C120.194 34.9757 120.097 34.6771 119.907 34.4392C119.804 34.3288 119.678 34.2428 119.537 34.1878C119.397 34.1329 119.245 34.1102 119.095 34.1216C118.937 34.116 118.78 34.1453 118.634 34.2074C118.489 34.2694 118.359 34.3628 118.253 34.4807C118.036 34.7259 117.92 35.045 117.93 35.3727V38.7187H116.616V35.2795C116.63 34.9759 116.534 34.6774 116.345 34.4392C116.242 34.3289 116.115 34.2431 115.975 34.1881C115.834 34.1331 115.683 34.1104 115.532 34.1216C115.374 34.1148 115.216 34.1429 115.07 34.204C114.923 34.265 114.792 34.3575 114.685 34.4749C114.469 34.7227 114.355 35.0439 114.368 35.3727V38.7187H113.047V33.0788H114.327V33.7958C114.487 33.5125 114.731 33.286 115.025 33.1478C115.323 32.9972 115.653 32.9184 115.987 32.9176C116.342 32.912 116.691 32.9997 117.001 33.172C117.299 33.3395 117.534 33.5998 117.67 33.9132C117.835 33.6514 118.056 33.4288 118.316 33.2607C118.576 33.0927 118.87 32.9834 119.176 32.9404C119.483 32.8973 119.796 32.9216 120.092 33.0115C120.388 33.1014 120.662 33.2547 120.893 33.4609C121.095 33.6723 121.251 33.9238 121.35 34.1992C121.449 34.4746 121.489 34.7677 121.468 35.0596V38.7187L120.179 38.7175ZM63.4101 38.7175V35.3796C63.4268 35.0536 63.3291 34.732 63.1339 34.4703C63.0243 34.3493 62.8882 34.2551 62.7363 34.1952C62.5844 34.1353 62.4207 34.1113 62.258 34.125C62.1005 34.1174 61.9434 34.1457 61.7986 34.208C61.6538 34.2702 61.5251 34.3647 61.4223 34.4841C61.2116 34.7427 61.0958 35.0656 61.0943 35.3992V38.7106H59.7603V30.3347H61.0977V33.6232C61.2945 33.4077 61.5327 33.2341 61.7982 33.1129C62.0636 32.9917 62.3508 32.9254 62.6425 32.9178C62.9342 32.9103 63.2245 32.9618 63.4958 33.0691C63.7671 33.1765 64.014 33.3375 64.2216 33.5426C64.5886 33.9973 64.7772 34.5702 64.7522 35.154V38.7222L63.4101 38.7175ZM24.2935 38.1354C24.0426 37.8812 23.8468 37.578 23.7184 37.2446C23.5901 36.9113 23.532 36.5551 23.5477 36.1982V35.5836C20.9447 37.7218 17.67 38.8718 14.3016 38.8306C11.7836 38.865 9.30287 38.2205 7.12009 36.9647C4.9373 35.709 3.13313 33.8884 1.8972 31.6943C0.623398 29.4441 -0.0303775 26.8961 0.00264215 24.3106V2.66587C-0.0132918 2.31127 0.0429697 1.95713 0.168014 1.62494C0.293059 1.29274 0.48428 0.989399 0.73008 0.733324C0.983477 0.48721 1.28447 0.295436 1.6146 0.169756C1.94473 0.0440767 2.29705 -0.0128611 2.64996 0.00243284C3.00007 -0.00946024 3.34899 0.0491086 3.67603 0.174663C4.00306 0.300216 4.30153 0.490196 4.55373 0.733324C4.80687 0.98537 5.00474 1.28737 5.13474 1.6201C5.26473 1.95282 5.32401 2.30897 5.30879 2.66587V14.5938C6.51631 13.097 8.04613 11.8922 9.78419 11.0691C11.5222 10.246 13.4237 9.82591 15.3467 9.84011C17.7429 9.81102 20.0979 10.4633 22.1377 11.7209C24.1752 12.9868 25.8281 14.7854 26.9178 16.9223L26.9247 16.9349C28.1868 19.197 28.8333 21.7505 28.7997 24.3405V36.1994C28.8157 36.5541 28.7601 36.9084 28.6363 37.2412C28.5125 37.574 28.3231 37.8784 28.0792 38.1365C27.5627 38.6085 26.8883 38.8702 26.1887 38.8702C25.489 38.8702 24.8147 38.6085 24.2981 38.1365L24.2935 38.1354ZM10.4975 17.4402C9.36533 18.1255 8.4404 19.1054 7.82145 20.2752C7.16432 21.5191 6.83103 22.9085 6.8523 24.3152C6.83251 25.7287 7.16562 27.1248 7.82145 28.3771C8.43543 29.5559 9.36106 30.5436 10.4975 31.2328C11.6465 31.9274 12.9671 32.2863 14.3097 32.2687C15.6522 32.2862 16.9728 31.9273 18.1218 31.2328C19.2611 30.5406 20.1927 29.5541 20.8186 28.3771C21.4873 27.1288 21.8279 25.7311 21.8085 24.3152C21.8294 22.906 21.4886 21.5151 20.8186 20.2752C20.1877 19.1072 19.2568 18.1286 18.1218 17.4402C16.9725 16.7463 15.6521 16.3875 14.3097 16.4043C12.9672 16.3874 11.6468 16.7462 10.4975 17.4402ZM171.762 24.1128C171.281 23.6245 170.905 23.0438 170.655 22.4058C170.405 21.7677 170.288 21.0857 170.309 20.4008C170.288 19.716 170.405 19.034 170.655 18.3959C170.905 17.7579 171.281 17.1771 171.762 16.6888C172.742 15.746 174.048 15.2194 175.408 15.2194C176.768 15.2194 178.075 15.746 179.055 16.6888C179.535 17.1769 179.912 17.7576 180.162 18.3957C180.412 19.0338 180.529 19.716 180.507 20.4008C180.529 21.0857 180.411 21.7677 180.161 22.4058C179.912 23.0438 179.535 23.6245 179.055 24.1128C178.074 25.0551 176.768 25.5814 175.408 25.5814C174.049 25.5814 172.742 25.0551 171.762 24.1128ZM173.659 18.3578C173.408 18.6332 173.215 18.9559 173.091 19.307C172.967 19.658 172.915 20.0303 172.937 20.402C172.914 20.7731 172.966 21.145 173.089 21.4958C173.213 21.8467 173.404 22.1694 173.654 22.445C173.882 22.6776 174.154 22.8624 174.454 22.9885C174.755 23.1146 175.077 23.1796 175.403 23.1796C175.729 23.1796 176.051 23.1146 176.351 22.9885C176.652 22.8624 176.924 22.6776 177.152 22.445C177.403 22.1695 177.596 21.8466 177.719 21.4953C177.843 21.144 177.896 20.7715 177.874 20.3997C177.896 20.028 177.843 19.6557 177.719 19.3047C177.595 18.9536 177.402 18.6309 177.152 18.3555C176.924 18.1229 176.652 17.9382 176.351 17.812C176.051 17.6859 175.729 17.6209 175.403 17.6209C175.077 17.6209 174.755 17.6859 174.454 17.812C174.154 17.9382 173.882 18.1229 173.654 18.3555L173.659 18.3578ZM49.1056 24.1128C48.625 23.6245 48.2484 23.0438 47.9988 22.4058C47.7491 21.7677 47.6315 21.0857 47.653 20.4008C47.6311 19.716 47.7486 19.0338 47.9983 18.3957C48.248 17.7576 48.6247 17.1769 49.1056 16.6888C50.0854 15.746 51.3923 15.2194 52.752 15.2194C54.1117 15.2194 55.4186 15.746 56.3984 16.6888C56.8793 17.1769 57.256 17.7576 57.5057 18.3957C57.7554 19.0338 57.8729 19.716 57.851 20.4008C57.8725 21.0857 57.7549 21.7677 57.5053 22.4058C57.2556 23.0438 56.879 23.6245 56.3984 24.1128C55.4183 25.0551 54.1116 25.5814 52.752 25.5814C51.3925 25.5814 50.0857 25.0551 49.1056 24.1128ZM51.0025 18.3578C50.7519 18.6332 50.559 18.9559 50.4351 19.307C50.3111 19.658 50.2587 20.0303 50.2808 20.402C50.2586 20.7738 50.311 21.1463 50.4349 21.4976C50.5589 21.8489 50.7518 22.1718 51.0025 22.4473C51.2305 22.6799 51.5027 22.8647 51.803 22.9908C52.1033 23.1169 52.4257 23.1819 52.7514 23.1819C53.0772 23.1819 53.3996 23.1169 53.6999 22.9908C54.0002 22.8647 54.2724 22.6799 54.5004 22.4473C54.751 22.1718 54.944 21.8489 55.0679 21.4976C55.1919 21.1463 55.2443 20.7738 55.2221 20.402C55.2442 20.0303 55.1917 19.658 55.0678 19.307C54.9439 18.9559 54.7509 18.6332 54.5004 18.3578C54.2724 18.1252 54.0002 17.9405 53.6999 17.8143C53.3996 17.6882 53.0772 17.6232 52.7514 17.6232C52.4257 17.6232 52.1033 17.6882 51.803 17.8143C51.5027 17.9405 51.2305 18.1252 51.0025 18.3578ZM149.17 24.6884C148.879 24.4287 148.647 24.1106 148.489 23.7549C148.33 23.3993 148.248 23.0141 148.249 22.6246C148.232 22.2522 148.295 21.8806 148.434 21.5347C148.573 21.1888 148.785 20.8768 149.055 20.6195C149.639 20.0955 150.37 19.7629 151.149 19.6665L153.541 19.3097C154.029 19.2437 154.273 19.0135 154.273 18.6191C154.277 18.4445 154.241 18.2713 154.167 18.113C154.093 17.9547 153.984 17.8155 153.847 17.7063C153.468 17.4566 153.02 17.3318 152.565 17.3496C152.111 17.3673 151.674 17.5267 151.315 17.8053C150.997 18.0997 150.803 18.5043 150.772 18.9368L148.44 18.4407C148.55 17.5601 148.996 16.7562 149.685 16.1974C150.506 15.5202 151.549 15.1734 152.611 15.2248C153.188 15.1759 153.768 15.2429 154.318 15.4218C154.868 15.6007 155.376 15.8879 155.813 16.2664C156.156 16.6192 156.423 17.0377 156.6 17.4966C156.776 17.9555 156.858 18.4454 156.84 18.9368V23.7399C156.834 24.2583 156.873 24.7762 156.955 25.288H154.544C154.469 24.9025 154.436 24.5101 154.445 24.1175C154.14 24.5927 153.713 24.9777 153.209 25.2325C152.705 25.4873 152.142 25.6026 151.579 25.5666C150.692 25.6019 149.827 25.2864 149.172 24.6884H149.17ZM152.085 21.2353C151.281 21.3543 150.879 21.7648 150.879 22.4669C150.876 22.6172 150.904 22.7665 150.962 22.9052C151.02 23.0439 151.106 23.1691 151.215 23.2726C151.34 23.3861 151.487 23.4735 151.647 23.5298C151.806 23.5862 151.975 23.6102 152.144 23.6006C152.702 23.6218 153.248 23.4343 153.675 23.0746C153.895 22.8459 154.063 22.5722 154.167 22.2723C154.271 21.9725 154.309 21.6537 154.278 21.3378V20.9004L152.085 21.2353ZM62.4769 24.0944V25.2857H59.9274V10.9119H62.516V16.5887C62.8018 16.1765 63.1951 15.8504 63.6532 15.646C64.217 15.3786 64.8353 15.2461 65.4592 15.2593C66.0788 15.2315 66.6965 15.3459 67.2651 15.5937C67.8337 15.8415 68.338 16.2161 68.7395 16.6888C69.5728 17.7264 70.0014 19.031 69.9458 20.3606C69.9967 21.7087 69.5456 23.0277 68.6797 24.0622C68.2713 24.5393 67.7608 24.9182 67.1859 25.1709C66.611 25.4235 65.9866 25.5434 65.359 25.5217C64.7946 25.5657 64.2287 25.4563 63.7213 25.2051C63.214 24.9538 62.784 24.5701 62.4769 24.0944ZM63.1675 18.3578C62.6817 18.9166 62.4339 19.6433 62.4769 20.3824C62.4356 21.1265 62.6877 21.8571 63.179 22.4174C63.3973 22.6571 63.6643 22.8475 63.962 22.9759C64.2597 23.1043 64.5813 23.1678 64.9055 23.1621C65.2301 23.1704 65.5525 23.1081 65.8506 22.9795C66.1487 22.8509 66.4153 22.6591 66.632 22.4174C67.1114 21.8514 67.3553 21.123 67.3134 20.3824C67.3567 19.6448 67.1124 18.9192 66.632 18.3578C66.4138 18.1187 66.1466 17.9293 65.8487 17.8026C65.5508 17.6759 65.2291 17.6148 64.9055 17.6235C64.5806 17.6154 64.2576 17.6765 63.9581 17.803C63.6586 17.9294 63.3895 18.1181 63.1686 18.3566L63.1675 18.3578ZM185.049 25.2834L181.077 15.5171H183.962L186.374 22.0675L188.686 15.5171H191.449L187.673 25.2834H185.049ZM165.739 25.2834V19.5871C165.763 19.0796 165.605 18.58 165.294 18.1782C165.116 18.0048 164.905 17.8681 164.674 17.7762C164.443 17.6842 164.196 17.6388 163.947 17.6424C163.699 17.6461 163.453 17.6987 163.225 17.7974C162.997 17.896 162.79 18.0388 162.617 18.2174C162.28 18.6233 162.104 19.1392 162.123 19.6665V25.2834H159.497V15.5171H162.046V16.728C162.322 16.2522 162.735 15.8713 163.232 15.6357C163.735 15.3867 164.29 15.2578 164.852 15.2593C165.343 15.2272 165.834 15.308 166.288 15.4956C166.742 15.6832 167.147 15.9725 167.472 16.3412C168.095 17.1335 168.414 18.1229 168.371 19.1301V25.2834H165.739ZM143.544 25.2834V19.5871C143.568 19.0796 143.41 18.58 143.099 18.1782C142.744 17.8348 142.27 17.6428 141.776 17.6428C141.282 17.6428 140.807 17.8348 140.452 18.1782C140.12 18.5581 139.935 19.0437 139.928 19.5479V25.2846H137.299V10.9119H139.929V16.3309C140.257 15.9636 140.664 15.676 141.119 15.4903C141.574 15.3045 142.066 15.2255 142.557 15.2593C143.059 15.2245 143.563 15.3038 144.03 15.4911C144.497 15.6785 144.916 15.9691 145.255 16.3412C145.891 17.1279 146.219 18.1194 146.176 19.1301V25.2834H143.544ZM132.534 25.2834L129.965 21.5519L128.877 22.7029V25.2834H126.255V10.9119H128.88V19.1451L132.24 15.5125H135.679L131.786 19.6216L135.758 25.2788L132.534 25.2834ZM120.815 25.2834V10.9119H123.444V25.2834H120.815ZM115.38 25.2834V15.5171H118.007V25.2834H115.38ZM110.617 25.2834L108.048 21.5519L106.961 22.7029V25.2834H104.338V10.9119H106.967V19.1451L110.327 15.5125H113.766L109.873 19.6216L113.845 25.2788L110.617 25.2834ZM99.7661 25.2834L98.6082 22.0675H92.9142L91.7482 25.2834H88.8626L94.2344 11.21H97.3974L102.733 25.2834H99.7661ZM93.8166 19.5664H97.6909L95.7537 14.2464L93.8166 19.5664ZM77.4584 25.2834V15.5171H80.0079V16.9662C80.2559 16.4588 80.654 16.0399 81.1481 15.7665C81.6423 15.493 82.2087 15.3782 82.7703 15.4377C82.9154 15.4377 83.1156 15.4504 83.3827 15.4768V18.1368C83.1227 18.0843 82.8583 18.0577 82.5931 18.0574C81.926 18.0267 81.2733 18.258 80.7745 18.702C80.5202 18.988 80.3276 19.3234 80.2088 19.6872C80.0899 20.051 80.0474 20.4354 80.0839 20.8164V25.2823L77.4584 25.2834ZM72.0234 25.2834V15.5171H74.6523V25.2834H72.0234ZM36.4284 25.2834V11.21H41.4687C42.6096 11.1438 43.732 11.5207 44.6017 12.2621C44.9768 12.6102 45.2724 13.0352 45.4685 13.5079C45.6645 13.9806 45.7564 14.49 45.7378 15.0015C45.7488 15.678 45.5475 16.341 45.1623 16.8972C44.812 17.4218 44.298 17.816 43.7005 18.0183C44.4072 18.1874 45.0326 18.5982 45.4684 19.1796C45.9433 19.8028 46.191 20.5695 46.1705 21.3527C46.1878 21.8818 46.0909 22.4084 45.8863 22.8966C45.6817 23.3848 45.3743 23.8232 44.985 24.1819C44.1206 24.9436 42.9935 25.3387 41.8427 25.2834H36.4284ZM39.116 23.001H41.3294C41.8887 23.0336 42.4406 22.8604 42.881 22.5141C43.0694 22.3474 43.2178 22.1404 43.3153 21.9084C43.4127 21.6765 43.4566 21.4256 43.4438 21.1743C43.455 20.9206 43.4124 20.6674 43.3187 20.4313C43.2251 20.1953 43.0826 19.9817 42.9005 19.8046C42.477 19.4388 41.927 19.2537 41.3685 19.289H39.116V23.001ZM39.116 17.0261H41.0578C41.5879 17.0564 42.1101 16.8863 42.5207 16.5496C42.699 16.3869 42.8393 16.187 42.9316 15.964C43.0239 15.741 43.0659 15.5004 43.0548 15.2593C43.0669 15.0206 43.0262 14.7821 42.9357 14.5609C42.8452 14.3397 42.707 14.1411 42.5311 13.9794C42.108 13.6425 41.5743 13.4758 41.0347 13.5121H39.116V17.0261ZM115.543 13.458C115.391 13.3116 115.271 13.1358 115.189 12.9412C115.107 12.7466 115.067 12.5375 115.069 12.3265C115.066 12.111 115.106 11.8971 115.188 11.6975C115.269 11.498 115.39 11.3169 115.543 11.1651C115.692 11.0121 115.87 10.8903 116.066 10.8068C116.263 10.7234 116.474 10.68 116.687 10.6791C116.901 10.6783 117.113 10.72 117.31 10.8019C117.507 10.8837 117.686 11.0041 117.836 11.1559C117.99 11.3084 118.112 11.4909 118.194 11.6922C118.275 11.8935 118.315 12.1094 118.31 12.3265C118.307 12.6452 118.21 12.9559 118.031 13.2197C117.852 13.4834 117.599 13.6886 117.304 13.8093C117.01 13.9301 116.686 13.9612 116.373 13.8987C116.061 13.8362 115.773 13.6829 115.548 13.458H115.543ZM72.181 13.458C72.0292 13.3115 71.9089 13.1356 71.8274 12.9411C71.7458 12.7466 71.7048 12.5374 71.7068 12.3265C71.7042 12.1111 71.7448 11.8973 71.8263 11.6978C71.9077 11.4983 72.0284 11.3172 72.181 11.1651C72.3284 11.0084 72.5069 10.8842 72.7052 10.8005C72.9034 10.7169 73.1169 10.6756 73.332 10.6794C73.5464 10.6754 73.7592 10.7157 73.9572 10.7977C74.1553 10.8797 74.3343 11.0016 74.4831 11.1559C74.6376 11.3085 74.7593 11.4911 74.8409 11.6923C74.9224 11.8936 74.962 12.1094 74.9573 12.3265C74.9542 12.6452 74.8571 12.9559 74.6782 13.2197C74.4994 13.4834 74.2466 13.6886 73.9517 13.8093C73.6568 13.9301 73.3328 13.9612 73.0203 13.8987C72.7077 13.8362 72.4206 13.6829 72.1949 13.458H72.181Z" fill="#252525"/>
</svg>
